<svg width="758" height="744" viewBox="0 0 758 744" fill="none" xmlns="http://www.w3.org/2000/svg">
<g id="podcast 1" clip-path="url(#clip0)">
<path id="Vector" d="M91.4532 0C82.9692 0.00952843 74.8354 3.38401 68.8363 9.38311C62.8372 15.3822 59.4627 23.516 59.4532 32V710.428C59.4628 718.912 62.8373 727.045 68.8364 733.044C74.8355 739.044 82.9692 742.418 91.4532 742.428H388.453C396.937 742.418 405.07 739.043 411.069 733.044C417.068 727.045 420.443 718.912 420.453 710.428V32C420.443 23.516 417.069 15.3823 411.069 9.38321C405.07 3.38413 396.937 0.00962088 388.453 0H91.4532Z" fill="#E6E6E6"/>
<path id="Vector_2" d="M400.658 156.982V102.542C383.746 98.6579 367.826 91.3022 353.906 80.941C339.987 70.5799 328.372 57.4395 319.799 42.353L319.798 42.354C315.685 45.4037 310.698 47.045 305.578 47.034H262.35C273.885 75.784 292.701 101.038 316.951 120.315C341.2 139.592 370.047 152.228 400.658 156.982V156.982Z" fill="white"/>
<path id="Vector_3" d="M400.658 99.4219V47.1241C400.659 43.2984 399.907 39.5099 398.443 35.9752C396.98 32.4404 394.834 29.2287 392.129 26.5235C389.423 23.8183 386.212 21.6726 382.677 20.2091C379.142 18.7456 375.354 17.9929 371.528 17.9941H329.558V23.0441C329.562 26.283 328.909 29.4891 327.637 32.4679C326.365 35.4466 324.502 38.136 322.159 40.373C330.451 55.1069 341.709 67.9614 355.22 78.1249C368.731 88.2884 384.203 95.54 400.658 99.4219V99.4219Z" fill="white"/>
<path id="Vector_4" d="M198.769 47.0341H171.738C165.377 47.0323 159.277 44.5038 154.78 40.0049C150.283 35.5061 147.757 29.4052 147.758 23.0441V17.9941H108.378C104.553 17.9938 100.764 18.747 97.2301 20.2108C93.6957 21.6746 90.4843 23.8203 87.7793 26.5254C85.0742 29.2304 82.9285 32.4418 81.4647 35.9762C80.0009 39.5105 79.2477 43.2986 79.248 47.1241V695.324C79.2439 699.15 79.9948 702.939 81.4575 706.473C82.9202 710.008 85.0661 713.22 87.7721 715.924C90.4782 718.628 93.6912 720.772 97.2272 722.232C100.763 723.693 104.552 724.441 108.378 724.434H371.528C372.728 724.437 373.927 724.363 375.118 724.214C382.163 723.336 388.646 719.916 393.348 714.596C398.051 709.277 400.65 702.424 400.658 695.324V218.152C304.949 207.062 225.2 138.773 198.769 47.0341Z" fill="white"/>
<path id="Vector_5" d="M259.07 47.0341H201.929C228.23 137.073 306.609 204.062 400.658 215.102V160.082C369.229 155.276 339.611 142.307 314.765 122.469C289.919 102.631 270.714 76.6195 259.07 47.0341V47.0341Z" fill="white"/>
<path id="Vector_6" d="M380.612 532.781H110.611C109.286 532.78 108.015 532.252 107.078 531.315C106.14 530.378 105.613 529.107 105.611 527.781V460.806C105.613 459.48 106.14 458.209 107.078 457.272C108.015 456.335 109.286 455.807 110.611 455.806H380.612C381.938 455.807 383.208 456.335 384.146 457.272C385.083 458.209 385.61 459.48 385.612 460.806V527.781C385.61 529.107 385.083 530.378 384.146 531.315C383.208 532.252 381.938 532.78 380.612 532.781ZM110.611 457.806C109.816 457.807 109.053 458.123 108.491 458.685C107.929 459.248 107.612 460.01 107.611 460.806V527.781C107.612 528.577 107.929 529.339 108.491 529.902C109.053 530.464 109.816 530.78 110.611 530.781H380.612C381.407 530.78 382.17 530.464 382.732 529.902C383.295 529.339 383.611 528.577 383.612 527.781V460.806C383.611 460.01 383.295 459.248 382.732 458.685C382.17 458.123 381.407 457.807 380.612 457.806H110.611Z" fill="#E6E6E6"/>
<path id="Vector_7" d="M145.611 515.293C157.209 515.293 166.611 505.891 166.611 494.293C166.611 482.695 157.209 473.293 145.611 473.293C134.013 473.293 124.611 482.695 124.611 494.293C124.611 505.891 134.013 515.293 145.611 515.293Z" fill="#3F3D56"/>
<path id="Vector_8" d="M194.111 480.293C193.183 480.293 192.293 480.662 191.637 481.318C190.98 481.975 190.611 482.865 190.611 483.793C190.611 484.721 190.98 485.612 191.637 486.268C192.293 486.924 193.183 487.293 194.111 487.293H359.111C360.04 487.293 360.93 486.924 361.586 486.268C362.243 485.612 362.611 484.721 362.611 483.793C362.611 482.865 362.243 481.975 361.586 481.318C360.93 480.662 360.04 480.293 359.111 480.293H194.111Z" fill="#E6E6E6"/>
<path id="Vector_9" d="M194.111 501.293C193.183 501.293 192.293 501.662 191.637 502.318C190.98 502.975 190.611 503.865 190.611 504.793C190.611 505.721 190.98 506.612 191.637 507.268C192.293 507.924 193.183 508.293 194.111 508.293H359.111C360.04 508.293 360.93 507.924 361.586 507.268C362.243 506.612 362.611 505.721 362.611 504.793C362.611 503.865 362.243 502.975 361.586 502.318C360.93 501.662 360.04 501.293 359.111 501.293H194.111Z" fill="#E6E6E6"/>
<path id="Vector_10" d="M380.612 644.781H110.611C109.286 644.78 108.015 644.252 107.078 643.315C106.14 642.378 105.613 641.107 105.611 639.781V572.806C105.613 571.48 106.14 570.209 107.078 569.272C108.015 568.335 109.286 567.807 110.611 567.806H380.612C381.938 567.807 383.208 568.335 384.146 569.272C385.083 570.209 385.61 571.48 385.612 572.806V639.781C385.61 641.107 385.083 642.378 384.146 643.315C383.208 644.252 381.938 644.78 380.612 644.781V644.781ZM110.611 569.806C109.816 569.807 109.053 570.123 108.491 570.685C107.929 571.248 107.612 572.01 107.611 572.806V639.781C107.612 640.577 107.929 641.339 108.491 641.902C109.053 642.464 109.816 642.78 110.611 642.781H380.612C381.407 642.78 382.17 642.464 382.732 641.902C383.295 641.339 383.611 640.577 383.612 639.781V572.806C383.611 572.01 383.295 571.248 382.732 570.685C382.17 570.123 381.407 569.807 380.612 569.806H110.611Z" fill="#E6E6E6"/>
<path id="Vector_11" d="M145.611 627.293C157.209 627.293 166.611 617.891 166.611 606.293C166.611 594.695 157.209 585.293 145.611 585.293C134.013 585.293 124.611 594.695 124.611 606.293C124.611 617.891 134.013 627.293 145.611 627.293Z" fill="#3F3D56"/>
<path id="Vector_12" d="M194.111 592.293C193.183 592.293 192.293 592.662 191.637 593.318C190.98 593.975 190.611 594.865 190.611 595.793C190.611 596.721 190.98 597.612 191.637 598.268C192.293 598.924 193.183 599.293 194.111 599.293H359.111C360.04 599.293 360.93 598.924 361.586 598.268C362.243 597.612 362.611 596.721 362.611 595.793C362.611 594.865 362.243 593.975 361.586 593.318C360.93 592.662 360.04 592.293 359.111 592.293H194.111Z" fill="#E6E6E6"/>
<path id="Vector_13" d="M194.111 613.293C193.183 613.293 192.293 613.662 191.637 614.318C190.98 614.975 190.611 615.865 190.611 616.793C190.611 617.721 190.98 618.612 191.637 619.268C192.293 619.924 193.183 620.293 194.111 620.293H359.111C360.04 620.293 360.93 619.924 361.586 619.268C362.243 618.612 362.611 617.721 362.611 616.793C362.611 615.865 362.243 614.975 361.586 614.318C360.93 613.662 360.04 613.293 359.111 613.293H194.111Z" fill="#E6E6E6"/>
<path id="Vector_14" d="M239.929 393.796C227.452 393.801 215.097 391.348 203.568 386.575C192.04 381.803 181.565 374.806 172.743 365.983C163.92 357.16 156.922 346.686 152.15 335.157C147.378 323.629 144.924 311.273 144.929 298.796C144.929 298.598 144.93 298.388 144.941 298.189C145.232 246.164 187.844 203.796 239.929 203.796C261.36 203.799 282.161 211.047 298.953 224.363C315.745 237.679 327.542 256.281 332.428 277.147C337.315 298.014 335.003 319.919 325.869 339.307C316.735 358.694 301.316 374.423 282.114 383.941C269.01 390.462 254.566 393.836 239.929 393.796V393.796ZM239.929 205.796C215.376 205.851 191.836 215.592 174.424 232.904C157.012 250.216 147.135 273.699 146.94 298.252C146.929 298.464 146.929 298.635 146.929 298.796C146.923 322.381 155.877 345.087 171.98 362.319C188.083 379.551 210.131 390.021 233.662 391.61C257.193 393.2 280.449 385.79 298.723 370.88C316.997 355.97 328.923 334.674 332.088 311.303C333.876 298.154 332.829 284.773 329.016 272.062C325.203 259.351 318.713 247.603 309.983 237.609C301.253 227.614 290.484 219.604 278.401 214.117C266.318 208.63 253.2 205.793 239.929 205.796V205.796Z" fill="#E6E6E6"/>
<path id="playbutton" d="M282.952 303.395L217.93 265.855C217.625 265.679 217.281 265.587 216.93 265.587C216.578 265.587 216.234 265.679 215.93 265.855C215.625 266.03 215.373 266.283 215.197 266.587C215.022 266.891 214.93 267.236 214.93 267.587V342.668C214.93 343.019 215.022 343.364 215.197 343.668C215.373 343.972 215.625 344.225 215.93 344.4C216.234 344.576 216.578 344.668 216.93 344.668C217.281 344.668 217.625 344.576 217.93 344.4L282.952 306.859C283.256 306.684 283.508 306.432 283.684 306.127C283.86 305.823 283.952 305.479 283.952 305.127C283.952 304.776 283.86 304.431 283.684 304.127C283.508 303.823 283.256 303.571 282.952 303.395L217.93 265.855C217.625 265.679 217.281 265.587 216.93 265.587C216.578 265.587 216.234 265.679 215.93 265.855C215.625 266.03 215.373 266.283 215.197 266.587C215.022 266.891 214.93 267.236 214.93 267.587V342.668C214.93 343.019 215.022 343.364 215.197 343.668C215.373 343.972 215.625 344.225 215.93 344.4C216.234 344.576 216.578 344.668 216.93 344.668C217.281 344.668 217.625 344.576 217.93 344.4L282.952 306.859C283.256 306.684 283.508 306.432 283.684 306.127C283.86 305.823 283.952 305.479 283.952 305.127C283.952 304.776 283.86 304.431 283.684 304.127C283.508 303.823 283.256 303.571 282.952 303.395Z" fill="#6C63FF"/>
<path id="Vector_15" d="M636.43 290.296L592.43 295.296C593.03 281.781 591.888 269.174 587.43 258.296L623.43 245.296C620.204 258.755 626.262 274.106 636.43 290.296Z" fill="#FFB8B8"/>
<g id="secondarm">
<path id="Vector_16" d="M641.736 440.381L655.988 465.824C656.845 467.353 657.389 469.037 657.588 470.778C657.788 472.519 657.64 474.282 657.152 475.965C656.664 477.649 655.846 479.218 654.746 480.582C653.646 481.947 652.286 483.079 650.744 483.912V483.912C648.824 484.951 646.676 485.498 644.493 485.504C642.31 485.511 640.16 484.977 638.233 483.949C636.307 482.922 634.665 481.434 633.454 479.617C632.244 477.8 631.501 475.712 631.294 473.539L628.977 449.224L621.081 356.415L607.612 295.369L635.576 287.43L648.592 356.078L641.736 440.381Z" fill="#FFB8B8"/>
</g>
<path id="Vector_17" d="M665.429 711.296L647.429 710.296L607.429 532.296L522.429 711.296L504.429 710.296L556.429 434.296L557.429 384.296L622.429 380.296C646.723 407.013 660.481 434.643 662.429 463.296L665.429 711.296Z" fill="#2F2E41"/>
<path id="Vector_18" d="M520.97 742.55C517.562 744.105 514.287 731.133 511.834 734.331C503.599 745.068 484.425 741.7 484.511 740.46C483.863 740.252 483.265 739.914 482.751 739.468C482.238 739.022 481.821 738.476 481.525 737.864C481.228 737.252 481.06 736.585 481.028 735.906C480.997 735.227 481.104 734.548 481.343 733.911V733.911C481.629 733.149 482.096 732.468 482.703 731.926C483.31 731.384 484.04 730.998 484.83 730.8L493.379 728.663L506.803 705.056L520.507 704.13C523.562 708.025 525.694 712.562 526.743 717.399C527.792 722.237 527.73 727.249 526.562 732.06C525.318 737.135 523.399 741.441 520.97 742.55Z" fill="#2F2E41"/>
<path id="Vector_19" d="M663.05 742.55C659.643 744.105 656.368 731.134 653.915 734.331C644.427 746.695 625.952 742.428 626.591 740.46C625.944 740.252 625.345 739.914 624.832 739.468C624.319 739.022 623.901 738.476 623.605 737.864C623.309 737.251 623.14 736.585 623.109 735.906C623.078 735.227 623.185 734.548 623.424 733.911V733.911C623.709 733.149 624.176 732.468 624.783 731.926C625.391 731.384 626.121 730.998 626.91 730.8L635.46 728.663L648.883 705.056L663.513 703.204L663.883 703.808C666.711 708.367 668.534 713.476 669.231 718.794C669.928 724.113 669.483 729.519 667.925 734.652C666.708 738.551 665.052 741.636 663.05 742.55Z" fill="#2F2E41"/>
<path id="Vector_20" d="M624.43 385.296L557.43 389.296L551.43 351.296C545.218 334.215 552.981 318.522 565.43 303.296L591.43 274.296L627.43 273.296C632.275 274.888 636.568 277.824 639.808 281.764C643.047 285.703 645.1 290.482 645.725 295.544C648.32 316.803 644.44 338.351 634.593 357.37L624.43 385.296Z" fill="#6C63FF"/>
<g id="firstarm">
<path id="Vector_21" d="M551.43 470.296L556.224 499.062C556.512 500.791 556.453 502.559 556.052 504.265C555.65 505.971 554.913 507.58 553.884 508.999C552.855 510.417 551.554 511.617 550.057 512.528C548.56 513.439 546.897 514.044 545.164 514.306V514.306C543.006 514.633 540.8 514.421 538.744 513.687C536.687 512.954 534.845 511.723 533.38 510.104C531.916 508.485 530.875 506.529 530.351 504.409C529.826 502.29 529.835 500.074 530.376 497.959L536.43 474.296L560.43 384.296L568.43 322.296L597.43 324.296L586.43 393.296L551.43 470.296Z" fill="#FFB8B8"/>
</g>
<path id="Vector_22" d="M600.43 334.296C588.017 324.8 575.68 324.05 563.43 333.296L566.775 295.323C566.682 289.956 568.683 284.765 572.354 280.848C576.024 276.932 581.075 274.599 586.437 274.343V274.343C589.256 274.209 592.074 274.655 594.715 275.652C597.356 276.65 599.764 278.178 601.791 280.144C603.817 282.109 605.42 284.468 606.498 287.077C607.577 289.686 608.11 292.488 608.062 295.311L600.43 334.296Z" fill="#6C63FF"/>
<path id="Vector_23" d="M596.93 249.796C599.139 249.796 600.93 246.438 600.93 242.296C600.93 238.154 599.139 234.796 596.93 234.796C594.72 234.796 592.93 238.154 592.93 242.296C592.93 246.438 594.72 249.796 596.93 249.796Z" fill="#FFB8B8"/>
<g id="head">
<path id="Vector_24" d="M596.43 267.296C613.55 267.296 627.43 253.417 627.43 236.296C627.43 219.175 613.55 205.296 596.43 205.296C579.309 205.296 565.43 219.175 565.43 236.296C565.43 253.417 579.309 267.296 596.43 267.296Z" fill="#FFB8B8"/>
<path id="Vector_25" d="M633.605 355.796H632.888C619.366 344.079 607.615 330.944 617.105 314.5C609.057 294.073 600.084 272.86 600.626 259.736C601.027 250.029 598.201 240.359 591.883 232.979C583.331 222.989 581.428 218.527 565.808 222.305C565.752 218.293 566.513 214.312 568.043 210.604C569.573 206.895 571.842 203.537 574.71 200.732C577.579 197.927 580.988 195.735 584.73 194.288C588.472 192.841 592.469 192.17 596.478 192.316L606.236 192.671C613.702 192.943 637.56 195.994 642.682 200.921C645.279 203.502 647.244 206.649 648.424 210.115C649.605 213.582 649.968 217.274 649.486 220.904C648.528 229.049 651.098 236.241 657.964 242.272C671.108 255.864 676.529 269.967 669.077 284.922C663.452 300.754 663.72 313.786 678.23 320.051C682.942 338.136 652.294 355.796 633.605 355.796Z" fill="#2F2E41"/>
<path id="Vector_26" d="M605.929 225.062V191.796C605.929 191.001 605.613 190.237 605.051 189.675C604.488 189.112 603.725 188.796 602.929 188.796H596.929C596.134 188.796 595.371 189.112 594.808 189.675C594.246 190.237 593.929 191.001 593.929 191.796V223.056C589.493 223.776 585.456 226.048 582.54 229.468C579.623 232.888 578.016 237.233 578.006 241.727C577.995 246.222 579.581 250.574 582.481 254.008C585.382 257.442 589.407 259.734 593.84 260.475C598.273 261.216 602.826 260.359 606.685 258.055C610.545 255.752 613.461 252.152 614.913 247.899C616.365 243.645 616.259 239.014 614.613 234.831C612.968 230.649 609.89 227.186 605.929 225.062V225.062Z" fill="#6C63FF"/>
</g>
<path id="Vector_27" d="M597.93 250.796C602.9 250.796 606.93 246.767 606.93 241.796C606.93 236.826 602.9 232.796 597.93 232.796C592.959 232.796 588.93 236.826 588.93 241.796C588.93 246.767 592.959 250.796 597.93 250.796Z" fill="white"/>
</g>
<defs>
<clipPath id="clip0">
<rect width="757.964" height="743.732" fill="white"/>
</clipPath>
</defs>
</svg>
